<svg width="773" height="317" viewBox="0 0 773 317" fill="none" xmlns="http://www.w3.org/2000/svg">
<path d="M756.002 84.9681C748.161 118.873 737.436 165.249 735.453 173.823C732.75 185.515 734.171 191.796 734.171 191.796L711.178 186.479C711.178 186.479 715.243 180.44 714.288 170.366C713.648 161.596 709.94 108.392 708.034 80.239C702.987 102.063 694.515 138.696 692.938 145.516C689.513 160.325 691.43 164.464 691.43 164.464L673.698 160.363C673.698 160.363 678.497 157.367 681.741 143.338C683.769 134.569 690.573 105.145 696.792 78.2551C703.01 51.3648 703.033 33.5109 703.033 33.5109L735.38 40.9911C735.38 40.9911 729.123 52.0663 729.597 65.1084C730.043 73.8332 731.66 110.336 732.773 134.816C736.558 118.448 741.019 99.1574 744.895 82.3996C748.635 66.2265 751.834 52.3916 753.501 45.1818L753.592 44.7921C757.016 29.983 755.099 25.8447 755.099 25.8447L772.831 29.9453C772.831 29.9453 768.078 32.7463 764.789 46.9709L764.518 48.1401C764.518 48.1401 760.823 64.1184 756.002 84.9681Z" fill="url(#paint0_radial_101_23)"/>
<path d="M670.928 52.1108C670.928 52.1108 656.225 51.6416 643.626 48.0593C643.55 56.3463 642.518 70.7594 638.947 93.6828C647.901 94.6731 652.297 93.7388 653.529 85.8342L659.26 86.7271L657.104 100.56L654.949 114.393L649.218 113.5C650.45 105.596 646.577 103.171 637.715 101.587C634.328 123.325 631.018 136.776 628.737 144.922C642.711 144.873 653.834 148.832 653.834 148.832C658.509 137.011 663.016 134.07 663.016 134.07L668.505 133.913C662.58 139.467 661.187 160.099 661.187 160.099C635.16 149.161 605.762 152.07 605.762 152.07C605.762 152.07 611.729 141.057 619.026 94.2224C626.354 47.1899 623.99 35.0815 623.99 35.0815C623.99 35.0815 653.877 47.2274 682.392 44.7884L679.682 62.1786L675.089 63.0821L670.928 52.1108Z" fill="url(#paint1_radial_101_23)"/>
<path d="M596.779 29.4923C596.779 29.4923 578.429 30.0314 562.735 26.2176C562.873 36.6857 562.656 54.5562 559.731 83.2072C570.914 83.9469 576.29 82.4854 577.326 72.3381L584.489 73.0695L582.701 90.5784L580.934 107.888L573.771 107.157C574.787 97.2089 569.837 94.4921 558.736 92.9566C555.754 120.195 552.813 137.184 550.364 147.388C567.759 146.349 581.78 150.796 581.78 150.796C586.946 135.643 592.168 131.753 592.168 131.753L599.055 131.25C592.095 138.38 591.683 164.071 591.683 164.071C558.692 152.46 522.362 157.797 522.362 157.797C522.362 157.797 529.018 143.801 535.01 85.1062C541.023 26.2123 537.313 11.3586 537.313 11.3586C537.313 11.3586 575.355 24.6916 610.431 19.829L608.237 41.3173L602.662 42.7585L596.779 29.4923Z" fill="url(#paint2_radial_101_23)"/>
<path d="M492.683 126.768C490.585 137.483 493.778 142.035 493.778 142.035L489.582 141.841L468.805 140.878L465.208 140.711C465.208 140.711 468.335 138.053 466.721 125.365L460.776 80.8418L451.727 124.87C449.629 135.584 452.822 140.137 452.822 140.137L448.626 139.943L427.849 138.98L424.053 138.804C424.053 138.804 427.379 136.155 425.765 123.466L413.693 34.0116C412.702 25.1562 408.222 18.1413 408.222 18.1413L437.99 19.521C437.99 19.521 435.171 24.1955 435.182 32.605L442.954 115.454L455.586 54.5733C457.638 44.8579 454.72 38.7162 454.72 38.7162L482.29 39.9941C482.29 39.9941 478.862 44.8406 479.072 53.2593L483.91 117.352L501.714 31.2841C503.139 22.1403 501.619 16.0634 501.619 16.0634L520.998 16.9616C520.998 16.9616 514.271 23.8575 511.374 34.5348L492.683 126.768Z" fill="url(#paint3_radial_101_23)"/>
<path d="M370.57 6.3349C388.37 6.38472 402.881 38.2255 402.77 77.6253C402.66 117.025 387.971 148.984 370.171 148.934C352.371 148.885 338.06 116.844 338.171 77.4445C338.281 38.0447 352.77 6.28508 370.57 6.3349ZM370.19 142.134C376.59 142.152 381.871 113.167 381.97 77.5671C382.07 41.9672 376.951 13.1528 370.551 13.1349C364.151 13.117 359.07 41.9029 358.97 77.5027C358.871 113.103 363.79 142.116 370.19 142.134Z" fill="url(#paint4_radial_101_23)"/>
<path d="M334.35 120.612C329.519 127.141 331.853 147.487 331.853 147.487C304.289 141.606 280.086 149.443 280.086 149.443C280.086 149.443 284.286 141.73 283.945 128.735L281.443 33.1674C281.17 22.7709 276.126 13.4998 276.126 13.4998L304.916 12.7458C304.916 12.7458 300.722 20.6584 301.062 33.6539L303.79 137.818C314.95 136.125 322.599 137.926 322.599 137.926C325.074 125.457 328.778 121.759 328.778 121.759L334.35 120.612Z" fill="url(#paint5_radial_101_23)"/>
<path d="M270.613 132.625C264.894 140.976 268.596 166.402 268.596 166.402C234.161 160.017 204.343 170.79 204.343 170.79C204.343 170.79 209.181 161.088 208.216 144.717L201.227 26.1226C200.474 13.3448 194.002 2.10606 194.002 2.10606L229.74 0C229.74 0 224.703 9.71317 225.667 26.0848L233.292 155.46C247.161 152.84 256.686 154.683 256.686 154.683C259.374 139.098 263.895 134.223 263.895 134.223L270.613 132.625Z" fill="url(#paint6_radial_101_23)"/>
<path d="M193.314 141.997L164.011 148.291C164.011 148.291 166.672 142.985 165.198 134.693L161.351 113.378L139.869 115.634L136.252 136.727C134.595 147.76 138.131 154.629 138.131 154.629L118.838 156.655C118.838 156.655 124.011 148.469 126.265 137.373L145.931 29.7312L161.697 30.489L186.23 130.072C188.541 138.677 193.314 141.997 193.314 141.997ZM140.97 108.882L160.065 106.877L150.448 53.59L140.97 108.882Z" fill="url(#paint7_radial_101_23)"/>
<path d="M78.1808 181.851C78.1808 181.851 81.8692 171.473 79.1138 155.509L71.0515 108.799L47.007 112.95L58.1649 177.594C60.3761 190.404 68.0646 200.849 68.0646 200.849L32.9834 206.904C32.9834 206.904 36.6718 196.525 33.9164 180.561L9.8997 41.4189C7.68853 28.6083 0 18.1638 0 18.1638L35.0813 12.1086C35.0813 12.1086 31.3928 22.4873 34.1483 38.4512L45.6123 104.869L69.6568 100.719L59.7575 43.3669C57.5464 30.5564 49.8919 20.309 49.8919 20.309L84.9731 14.2538C84.9731 14.2538 81.2507 24.4353 84.0401 40.5964L103.362 152.541C107.104 174.22 113.942 179.738 113.942 179.738L78.1808 181.851Z" fill="url(#paint8_radial_101_23)"/>
<path d="M633.65 194.605C640.591 197.967 674.439 205.379 682.151 205.225L679.359 217.973L676.026 218.471L673.413 210.068C673.413 210.068 669.328 209.788 663.549 208.829L644.523 295.721C642.855 303.34 644.717 310.965 644.717 310.965L623.764 306.377C623.764 306.377 628.206 301.515 630.324 291.844L649.157 205.832C645.966 204.979 642.66 203.948 639.565 202.656L633.679 209.199L630.858 207.353L633.65 194.605Z" fill="url(#paint9_radial_101_23)"/>
<path d="M582.928 295.298C582.928 295.298 587.065 290.173 588.588 280.391L592.971 252.23L578.446 249.969L572.355 289.098C571.156 296.805 573.503 304.154 573.503 304.154L552.309 300.855C552.309 300.855 556.446 295.73 557.945 286.096L571.049 201.91C572.272 194.054 569.776 186.683 569.776 186.683L591.119 190.005C591.119 190.005 586.981 195.13 585.459 204.912L579.207 245.078L593.732 247.339L599.13 212.657C600.33 204.949 598.005 197.453 598.005 197.453L619.2 200.752C619.2 200.752 615.04 206.024 613.54 215.658L602.997 283.393C600.967 296.436 603.878 301.139 603.878 301.139L582.928 295.298Z" fill="url(#paint10_radial_101_23)"/>
<path d="M550.866 245.477C555.342 254.263 552.101 292.386 529.286 289.904C493.795 286.044 505.935 185.518 542.023 189.442C557.531 191.129 554.933 206.69 554.933 206.69L543.791 209.25C543.791 209.25 547.767 194.895 541.802 194.247C525.398 192.463 516.267 283.358 529.688 284.818C538.337 285.759 541.768 258.369 538.974 253.539C538.974 253.539 532.368 254.631 529.431 252.501C529.431 252.501 532.07 247.658 531.198 243.187C531.198 243.187 540.913 246.809 550.866 245.477Z" fill="url(#paint11_radial_101_23)"/>
<path d="M500.104 205.929L494.336 265.359C493.719 273.134 496.601 280.435 496.601 280.435L477.421 281.321C477.421 281.321 481.363 273.358 482.134 263.638L485.809 204.042L485.659 204.03C486.276 196.255 483.233 189.092 483.233 189.092L504.766 190.8C504.766 190.8 501.025 196.221 500.254 205.941L500.104 205.929Z" fill="url(#paint12_radial_101_23)"/>
<path d="M470.492 206.195C469.18 232.262 467.384 267.916 467.052 274.508C466.599 283.497 468.478 287.947 468.478 287.947L450.8 287.057C450.8 287.057 453.004 282.061 450.97 274.75C449.339 268.359 439.577 229.569 434.454 209.036C433.609 225.814 432.19 253.979 431.926 259.222C431.353 270.608 433.315 273.41 433.315 273.41L419.682 272.723C419.682 272.723 422.829 269.878 423.372 259.092C423.712 252.35 424.851 229.729 425.892 209.055C426.933 188.381 424.593 175.197 424.593 175.197L449.462 176.449C449.462 176.449 446.305 185.452 448.376 195.018C449.857 201.401 455.87 228.137 459.924 246.064C460.557 233.48 461.304 218.648 461.953 205.765C462.579 193.33 463.115 182.694 463.394 177.151L463.409 176.851C463.982 165.466 462.021 162.664 462.021 162.664L475.654 163.35C475.654 163.35 472.514 166.046 471.963 176.982L471.918 177.881C471.918 177.881 471.299 190.165 470.492 206.195Z" fill="url(#paint13_radial_101_23)"/>
<path d="M369.157 192.536L353.685 233.501L353.955 259.299C354.038 267.249 357.56 274.112 357.56 274.112L335.961 274.338C335.961 274.338 339.201 268.604 339.098 258.705L338.836 233.656L325.105 197.348C322.338 190.926 319.583 185.705 319.583 185.705L341.932 185.471C341.932 185.471 339.565 188.646 341.285 195.378L349.967 222.289L360.336 195.329L360.186 195.331C363.112 188.25 360.531 185.276 360.531 185.276L374.33 185.132C374.33 185.132 371.947 186.807 369.157 192.536Z" fill="url(#paint14_radial_101_23)"/>
<path d="M259.471 174.582C267.048 176.022 301.659 174.367 309.064 172.211L309.688 185.246L306.598 186.595L301.888 179.161C301.888 179.161 297.871 179.954 292.042 180.533L296.291 269.382C296.663 277.173 300.446 284.05 300.446 284.05L279.021 285.074C279.021 285.074 282.045 279.223 281.572 269.335L277.366 181.385C274.063 181.393 270.603 181.258 267.278 180.816L263.298 188.665L260.094 187.617L259.471 174.582Z" fill="url(#paint15_radial_101_23)"/>
<path d="M241.713 240.011C265.099 247.831 255.63 283.85 272.371 282.444L272.798 287.526C230.795 291.053 254.634 245.097 231.339 243.742L233.096 264.668C233.748 272.441 237.764 279.028 237.764 279.028L216.389 280.823C216.389 280.823 219.2 274.867 218.385 265.151L213.489 206.856C212.824 198.934 208.659 192.359 208.659 192.359C264.067 172.804 271.475 225.168 241.713 240.011ZM227.46 197.554L228.201 206.373L230.887 238.361C251.051 232.904 250.464 191.86 227.071 192.921C227.159 193.967 227.297 195.611 227.46 197.554Z" fill="url(#paint16_radial_101_23)"/>
<path d="M209.364 280.203L187.494 285.401C187.494 285.401 189.403 281.378 188.162 275.185L184.93 259.266L168.859 261.307L166.491 277.182C165.429 285.482 168.193 290.575 168.193 290.575L153.759 292.408C153.759 292.408 157.504 286.187 159.013 277.83L172.004 196.797L183.837 197.108L203.857 271.377C205.731 277.792 209.364 280.203 209.364 280.203ZM169.575 256.227L183.86 254.412L175.779 214.613L169.575 256.227Z" fill="url(#paint17_radial_101_23)"/>
<path d="M90.4878 198.573C163.677 164.756 176.208 254.401 125.885 267.822L130.692 294.695C132.409 304.293 138.197 311.943 138.197 311.943L111.914 316.645C111.914 316.645 114.659 308.992 112.52 297.031L97.9922 215.821C96.2754 206.223 90.4878 198.573 90.4878 198.573ZM114.237 202.705L116.191 213.632L124.776 261.62C149.1 251.935 142.406 194.923 113.286 197.39C113.523 198.719 113.84 200.49 114.237 202.705Z" fill="url(#paint18_radial_101_23)"/>
<defs>
<radialGradient id="paint0_radial_101_23" cx="0" cy="0" r="1" gradientTransform="matrix(17.1706 318.935 -1444.32 14.9582 385.898 193.789)" gradientUnits="userSpaceOnUse">
<stop stop-color="#FBFBED"/>
<stop offset="1" stop-color="#DAFF83"/>
</radialGradient>
<radialGradient id="paint1_radial_101_23" cx="0" cy="0" r="1" gradientTransform="matrix(17.1706 318.935 -1444.32 14.9582 385.898 193.79)" gradientUnits="userSpaceOnUse">
<stop stop-color="#FBFBED"/>
<stop offset="1" stop-color="#DAFF83"/>
</radialGradient>
<radialGradient id="paint2_radial_101_23" cx="0" cy="0" r="1" gradientTransform="matrix(17.1706 318.935 -1444.32 14.9582 385.898 193.79)" gradientUnits="userSpaceOnUse">
<stop stop-color="#FBFBED"/>
<stop offset="1" stop-color="#DAFF83"/>
</radialGradient>
<radialGradient id="paint3_radial_101_23" cx="0" cy="0" r="1" gradientTransform="matrix(17.1706 318.935 -1444.32 14.9582 385.898 193.79)" gradientUnits="userSpaceOnUse">
<stop stop-color="#FBFBED"/>
<stop offset="1" stop-color="#DAFF83"/>
</radialGradient>
<radialGradient id="paint4_radial_101_23" cx="0" cy="0" r="1" gradientTransform="matrix(17.1706 318.935 -1444.32 14.9582 385.898 193.789)" gradientUnits="userSpaceOnUse">
<stop stop-color="#FBFBED"/>
<stop offset="1" stop-color="#DAFF83"/>
</radialGradient>
<radialGradient id="paint5_radial_101_23" cx="0" cy="0" r="1" gradientTransform="matrix(17.1706 318.935 -1444.32 14.9582 385.898 193.79)" gradientUnits="userSpaceOnUse">
<stop stop-color="#FBFBED"/>
<stop offset="1" stop-color="#DAFF83"/>
</radialGradient>
<radialGradient id="paint6_radial_101_23" cx="0" cy="0" r="1" gradientTransform="matrix(17.1706 318.935 -1444.32 14.9582 385.898 193.789)" gradientUnits="userSpaceOnUse">
<stop stop-color="#FBFBED"/>
<stop offset="1" stop-color="#DAFF83"/>
</radialGradient>
<radialGradient id="paint7_radial_101_23" cx="0" cy="0" r="1" gradientTransform="matrix(17.1706 318.935 -1444.32 14.9582 385.898 193.79)" gradientUnits="userSpaceOnUse">
<stop stop-color="#FBFBED"/>
<stop offset="1" stop-color="#DAFF83"/>
</radialGradient>
<radialGradient id="paint8_radial_101_23" cx="0" cy="0" r="1" gradientTransform="matrix(17.1706 318.935 -1444.32 14.9582 385.898 193.789)" gradientUnits="userSpaceOnUse">
<stop stop-color="#FBFBED"/>
<stop offset="1" stop-color="#DAFF83"/>
</radialGradient>
<radialGradient id="paint9_radial_101_23" cx="0" cy="0" r="1" gradientTransform="matrix(15.347 344.754 -1290.93 16.1691 387.701 330.216)" gradientUnits="userSpaceOnUse">
<stop stop-color="#FBFBED"/>
<stop offset="1" stop-color="#DAFF83"/>
</radialGradient>
<radialGradient id="paint10_radial_101_23" cx="0" cy="0" r="1" gradientTransform="matrix(15.347 344.754 -1290.93 16.1691 387.7 330.216)" gradientUnits="userSpaceOnUse">
<stop stop-color="#FBFBED"/>
<stop offset="1" stop-color="#DAFF83"/>
</radialGradient>
<radialGradient id="paint11_radial_101_23" cx="0" cy="0" r="1" gradientTransform="matrix(15.347 344.754 -1290.93 16.1691 387.701 330.216)" gradientUnits="userSpaceOnUse">
<stop stop-color="#FBFBED"/>
<stop offset="1" stop-color="#DAFF83"/>
</radialGradient>
<radialGradient id="paint12_radial_101_23" cx="0" cy="0" r="1" gradientTransform="matrix(15.347 344.754 -1290.93 16.1691 387.701 330.216)" gradientUnits="userSpaceOnUse">
<stop stop-color="#FBFBED"/>
<stop offset="1" stop-color="#DAFF83"/>
</radialGradient>
<radialGradient id="paint13_radial_101_23" cx="0" cy="0" r="1" gradientTransform="matrix(15.347 344.754 -1290.93 16.1691 387.701 330.216)" gradientUnits="userSpaceOnUse">
<stop stop-color="#FBFBED"/>
<stop offset="1" stop-color="#DAFF83"/>
</radialGradient>
<radialGradient id="paint14_radial_101_23" cx="0" cy="0" r="1" gradientTransform="matrix(15.347 344.754 -1290.93 16.1691 387.701 330.216)" gradientUnits="userSpaceOnUse">
<stop stop-color="#FBFBED"/>
<stop offset="1" stop-color="#DAFF83"/>
</radialGradient>
<radialGradient id="paint15_radial_101_23" cx="0" cy="0" r="1" gradientTransform="matrix(15.347 344.754 -1290.93 16.1691 387.701 330.216)" gradientUnits="userSpaceOnUse">
<stop stop-color="#FBFBED"/>
<stop offset="1" stop-color="#DAFF83"/>
</radialGradient>
<radialGradient id="paint16_radial_101_23" cx="0" cy="0" r="1" gradientTransform="matrix(15.347 344.754 -1290.93 16.1691 387.701 330.216)" gradientUnits="userSpaceOnUse">
<stop stop-color="#FBFBED"/>
<stop offset="1" stop-color="#DAFF83"/>
</radialGradient>
<radialGradient id="paint17_radial_101_23" cx="0" cy="0" r="1" gradientTransform="matrix(15.347 344.754 -1290.93 16.1691 387.701 330.216)" gradientUnits="userSpaceOnUse">
<stop stop-color="#FBFBED"/>
<stop offset="1" stop-color="#DAFF83"/>
</radialGradient>
<radialGradient id="paint18_radial_101_23" cx="0" cy="0" r="1" gradientTransform="matrix(15.347 344.754 -1290.93 16.1691 387.701 330.216)" gradientUnits="userSpaceOnUse">
<stop stop-color="#FBFBED"/>
<stop offset="1" stop-color="#DAFF83"/>
</radialGradient>
</defs>
</svg>
