<?xml version="1.0" encoding="UTF-8"?><svg id="Laag_2" xmlns="http://www.w3.org/2000/svg" viewBox="0 0 988.4 257.19"><g id="Laag_1-2"><path d="M182.4,56.27v13.89h-57.97v31.61h36.89v8.62h-36.89v34.01h57.97v12.93h-57.97v43.59h-13.89v-90.52h-30.42l-23,25.38-9.36-8.85,62.78-70.65h71.87-.01ZM110.53,101.77v-24.91l-22.52,24.91s22.52,0,22.52,0Z"/><polygon points="727.78 103.8 725.68 110.8 702.59 110.8 702.59 127.56 724.98 127.56 724.98 133.16 702.59 133.16 702.59 151.35 729.18 151.35 729.18 156.92 695.61 156.92 695.61 103.8 727.78 103.8"/><path d="M278.85,156.92c-10.22,2.13-9.75-7.5-12.43-14.54l-23.73-.64c-3.12,6.98-2.19,17.37-12.78,15.18,4.03-6.42,19.15-51.78,23.21-53.04,3.44-1.05,4.23,1.78,5.55,4.03,8.23,14.22,12.23,34.24,20.2,48.98v.03ZM262.07,134.56l-.67-4.2-7.71-16.75-7.01,20.96h15.38Z"/><path d="M375.35,140.17c.64,12.9,14.19,14.45,24.46,11.15,3.01,4.58-3.18,6.42-7.12,6.89-34.91,4.2-27.03-49.94.82-38.3,6.19,2.6,11.62,20.23,6.33,20.23h-24.46l-.03.03ZM394.94,134.56c-.32-14.48-18.33-13.78-18.18,0h18.18Z"/><path d="M792.11,140.17c.64,12.9,14.19,14.45,24.46,11.15,3.01,4.58-3.18,6.42-7.12,6.89-34.91,4.2-27.03-49.94.82-38.3,6.19,2.6,11.62,20.23,6.33,20.23h-24.46l-.03.03ZM811.67,134.56c-.32-14.48-18.33-13.78-18.18,0h18.18Z"/><path d="M606.82,118.57c25.01-.12,22.62,39.9,0,39.9s-24.64-39.78,0-39.9ZM607.05,123.73c-15.91.47-14.74,29.07-.23,29.07,15.27,0,14.8-29.51.23-29.07Z"/><path d="M417.3,119.18l5.46.18.85,4.03c5.87-3.85,13.98-7.09,20.7-2.89.38.23,3.77,4.64,3.77,4.96v31.47h-5.6v-28.66c0-6.19-15.88-4.58-18.18,1.4v27.26h-7.01v-37.74h.03Z"/><path d="M834.06,119.18l5.46.18.85,4.03c5.87-3.85,13.98-7.09,20.69-2.89.38.23,3.77,4.64,3.77,4.96v31.47h-5.6v-28.66c0-6.19-15.88-4.58-18.18,1.4v27.26h-7.01v-37.74h.03Z"/><path d="M562.74,124.78h-7.01v-5.58h7.01c.15-5.78-1.4-12.55,3.44-16.81,3.77-3.33,18.74-6.57,16.11.73-1.02,2.83-8.03-.38-11.85,3.53-2.89,2.95-2.07,8.73-2.13,12.55h11.21v5.58h-11.21v32.17h-5.6v-32.17h.03Z"/><path d="M522,120.78l.18,5.4c-7.5-3.56-21.34-3.85-15.41,7.74,29.95,4.29,16.35,31.23-8.2,22.88l-.18-5.43c5.58,1.84,18.27,3.5,18.3-4.9.03-8.96-18.94-3.21-18.45-16.73.44-11.73,15.06-12.99,23.7-8.93l.06-.03Z"/><path d="M938.76,120.78l.18,5.4c-7.5-3.56-21.34-3.85-15.41,7.74,29.95,4.29,16.35,31.23-8.2,22.88l-.18-5.43c5.58,1.84,18.27,3.5,18.3-4.9.03-8.96-18.94-3.21-18.45-16.73.44-11.73,15.06-12.99,23.7-8.93l.06-.03Z"/><path d="M474.65,149.24c1.14,4.09,9.08,3.77,12.58,3.5l-.82,4.32c-23.38,6.57-16.55-17.54-17.37-32.28l-8.41-.7c-.76-5.66,4.35-5.08,8.41-4.87v-9.81h5.58v9.81l11.21.7v4.87h-11.21v24.46h.03Z"/><path d="M891.41,149.24c1.14,4.09,9.08,3.77,12.58,3.5l-.82,4.32c-23.38,6.57-16.55-17.54-17.37-32.28l-8.41-.7c-.76-5.66,4.35-5.08,8.41-4.87v-9.81h5.58v9.81l11.21.7v4.87h-11.21v24.46h.03Z"/><path d="M757.17,149.92l11.3-30.62,6.86-.12c-5.6,10.86-8.11,25.39-13.6,35.99-1.63,3.18-5.6,2.31-8.11.35l-13.25-36.37c2.22,0,4.58-.64,6.28,1.4,3.82,4.61,7.09,22.97,10.51,29.36h.03Z"/><path d="M317.94,120.7l.09,4.09c-11.88-1.28-22.5.06-21.89,14.48.58,13.22,10.83,15.24,21.86,12.08l-.18,5.43c-38,11.24-37.25-48.13.09-36.08h.03Z"/><path d="M357.08,120.7l.09,4.09c-11.88-1.28-22.5.06-21.89,14.48.58,13.22,10.83,15.24,21.86,12.08l-.18,5.43c-38,11.24-37.25-48.13.09-36.08h.03Z"/><path d="M639.66,119.18h5.58l.7,5.58,14.68-6.98v6.98c-3.77-.88-13.98,2.1-13.98,6.3v25.86h-7.01v-37.74h.03Z"/></g></svg>