<?xml version="1.0" encoding="UTF-8"?><svg id="Laag_2" xmlns="http://www.w3.org/2000/svg" viewBox="0 0 257.19 257.19"><g id="Laag_1-2"><path d="M184.6,36.85v13.89h-57.97v31.61h36.89v8.62h-36.89v34.01h57.97v12.93h-57.97v43.59h-13.89v-90.52h-30.42l-23,25.38-9.36-8.85,62.78-70.65h71.87-.01ZM112.73,82.35v-24.91l-22.52,24.91s22.52,0,22.52,0Z"/><polygon points="177.41 201.61 176.69 204.01 168.78 204.01 168.78 209.75 176.45 209.75 176.45 211.67 168.78 211.67 168.78 217.9 177.89 217.9 177.89 219.81 166.39 219.81 166.39 201.61 177.41 201.61"/><path d="M23.61,219.81c-3.5.73-3.34-2.57-4.26-4.98l-8.13-.22c-1.07,2.39-.75,5.95-4.38,5.2,1.38-2.2,6.56-17.74,7.95-18.17,1.18-.36,1.45.61,1.9,1.38,2.82,4.87,4.19,11.73,6.92,16.78h0ZM17.86,212.15l-.23-1.44-2.64-5.74-2.4,7.18h5.27Z"/><path d="M56.67,214.07c.22,4.42,4.86,4.95,8.38,3.82,1.03,1.57-1.09,2.2-2.44,2.36-11.96,1.44-9.26-17.11.28-13.12,2.12.89,3.98,6.93,2.17,6.93h-8.39ZM63.38,212.15c-.11-4.96-6.28-4.72-6.23,0h6.23Z"/><path d="M199.45,214.07c.22,4.42,4.86,4.95,8.38,3.82,1.03,1.57-1.09,2.2-2.44,2.36-11.96,1.44-9.26-17.11.28-13.12,2.12.89,3.98,6.93,2.17,6.93h-8.39ZM206.15,212.15c-.11-4.96-6.28-4.72-6.23,0h6.23Z"/><path d="M135.97,206.67c8.57-.04,7.75,13.67,0,13.67s-8.44-13.63,0-13.67ZM136.05,208.44c-5.45.16-5.05,9.96-.08,9.96,5.23,0,5.07-10.11.08-9.96Z"/><path d="M71.04,206.88l1.87.06.29,1.38c2.01-1.32,4.79-2.43,7.09-.99.13.08,1.29,1.59,1.29,1.7v10.78h-1.92v-9.82c0-2.12-5.44-1.57-6.23.48v9.34h-2.4v-12.93h0Z"/><path d="M213.82,206.88l1.87.06.29,1.38c2.01-1.32,4.79-2.43,7.09-.99.13.08,1.29,1.59,1.29,1.7v10.78h-1.92v-9.82c0-2.12-5.44-1.57-6.23.48v9.34h-2.4v-12.93h.01Z"/><path d="M120.87,208.8h-2.4v-1.91h2.4c.05-1.98-.48-4.3,1.18-5.76,1.29-1.14,6.42-2.25,5.52.25-.35.97-2.75-.13-4.06,1.21-.99,1.01-.71,2.99-.73,4.3h3.84v1.91h-3.84v11.02h-1.92v-11.02h.01Z"/><path d="M106.91,207.43l.06,1.85c-2.57-1.22-7.31-1.32-5.28,2.65,10.26,1.47,5.6,10.7-2.81,7.84l-.06-1.86c1.91.63,6.26,1.2,6.27-1.68.01-3.07-6.49-1.1-6.32-5.73.15-4.02,5.16-4.45,8.12-3.06h.02Z"/><path d="M249.69,207.43l.06,1.85c-2.57-1.22-7.31-1.32-5.28,2.65,10.26,1.47,5.6,10.7-2.81,7.84l-.06-1.86c1.91.63,6.26,1.2,6.27-1.68,0-3.07-6.49-1.1-6.32-5.73.15-4.02,5.16-4.45,8.12-3.06h.02Z"/><path d="M90.69,217.18c.39,1.4,3.11,1.29,4.31,1.2l-.28,1.48c-8.01,2.25-5.67-6.01-5.95-11.06l-2.88-.24c-.26-1.94,1.49-1.74,2.88-1.67v-3.36h1.91v3.36l3.84.24v1.67h-3.84v8.38h0Z"/><path d="M233.47,217.18c.39,1.4,3.11,1.29,4.31,1.2l-.28,1.48c-8.01,2.25-5.67-6.01-5.95-11.06l-2.88-.24c-.26-1.94,1.49-1.74,2.88-1.67v-3.36h1.91v3.36l3.84.24v1.67h-3.84v8.38h0Z"/><path d="M187.48,217.41l3.87-10.49,2.35-.04c-1.92,3.72-2.78,8.7-4.66,12.33-.56,1.09-1.92.79-2.78.12l-4.54-12.46c.76,0,1.57-.22,2.15.48,1.31,1.58,2.43,7.87,3.6,10.06h0Z"/><path d="M37,207.4l.03,1.4c-4.07-.44-7.71.02-7.5,4.96.2,4.53,3.71,5.22,7.49,4.14l-.06,1.86c-13.02,3.85-12.76-16.49.03-12.36h.01Z"/><path d="M50.41,207.4l.03,1.4c-4.07-.44-7.71.02-7.5,4.96.2,4.53,3.71,5.22,7.49,4.14l-.06,1.86c-13.02,3.85-12.76-16.49.03-12.36h.01Z"/><path d="M147.22,206.88h1.91l.24,1.91,5.03-2.39v2.39c-1.29-.3-4.79.72-4.79,2.16v8.86h-2.4v-12.93h0Z"/></g></svg>