<?xml version="1.0" encoding="UTF-8"?>
<svg id="Laag_2" xmlns="http://www.w3.org/2000/svg" version="1.1" viewBox="0 0 891.2 144.7">
  <!-- Generator: Adobe Illustrator 29.8.1, SVG Export Plug-In . SVG Version: 2.1.1 Build 2)  -->
  <defs>
    <style>
      .st0 {
        fill: #fff;
      }
    </style>
  </defs>
  <g id="Laag_1-2">
    <path class="st0" d="M134.6,0v13.9h-58v31.6h36.9v8.6h-36.9v34h58v12.9h-58v43.6h-13.9V54.1h-30.4l-23,25.4L0,70.7,62.8,0h71.9,0ZM62.8,45.5v-24.9l-22.5,24.9s22.5,0,22.5,0Z"/>
    <polygon class="st0" points="680 47.5 677.9 54.5 654.8 54.5 654.8 71.3 677.2 71.3 677.2 76.9 654.8 76.9 654.8 95.1 681.4 95.1 681.4 100.6 647.8 100.6 647.8 47.5 680 47.5"/>
    <path class="st0" d="M231.1,100.6c-10.2,2.1-9.8-7.5-12.4-14.5l-23.7-.6c-3.1,7-2.2,17.4-12.8,15.2,4-6.4,19.1-51.8,23.2-53,3.4-1.1,4.2,1.8,5.5,4,8.2,14.2,12.2,34.2,20.2,49h0s0,0,0,0ZM214.3,78.3l-.7-4.2-7.7-16.8-7,21h15.4Z"/>
    <path class="st0" d="M327.6,83.9c.6,12.9,14.2,14.4,24.5,11.1,3,4.6-3.2,6.4-7.1,6.9-34.9,4.2-27-49.9.8-38.3,6.2,2.6,11.6,20.2,6.3,20.2h-24.5ZM347.2,78.3c-.3-14.5-18.3-13.8-18.2,0h18.2Z"/>
    <path class="st0" d="M744.3,83.9c.6,12.9,14.2,14.4,24.5,11.1,3,4.6-3.2,6.4-7.1,6.9-34.9,4.2-27-49.9.8-38.3,6.2,2.6,11.6,20.2,6.3,20.2h-24.5ZM763.9,78.3c-.3-14.5-18.3-13.8-18.2,0h18.2Z"/>
    <path class="st0" d="M559.1,62.3c25-.1,22.6,39.9,0,39.9s-24.6-39.8,0-39.9ZM559.3,67.5c-15.9.5-14.7,29.1-.2,29.1s14.8-29.5.2-29.1Z"/>
    <path class="st0" d="M369.5,62.9l5.5.2.9,4c5.9-3.8,14-7.1,20.7-2.9.4.2,3.8,4.6,3.8,5v31.5h-5.6v-28.7c0-6.2-15.9-4.6-18.2,1.4v27.3h-7v-37.7h0,0Z"/>
    <path class="st0" d="M786.3,62.9l5.5.2.8,4c5.9-3.8,14-7.1,20.7-2.9.4.2,3.8,4.6,3.8,5v31.5h-5.6v-28.7c0-6.2-15.9-4.6-18.2,1.4v27.3h-7v-37.7h0,0Z"/>
    <path class="st0" d="M515,68.5h-7v-5.6h7c.2-5.8-1.4-12.6,3.4-16.8,3.8-3.3,18.7-6.6,16.1.7-1,2.8-8-.4-11.8,3.5-2.9,2.9-2.1,8.7-2.1,12.6h11.2v5.6h-11.2v32.2h-5.6v-32.2h0,0Z"/>
    <path class="st0" d="M474.2,64.5l.2,5.4c-7.5-3.6-21.3-3.8-15.4,7.7,29.9,4.3,16.4,31.2-8.2,22.9l-.2-5.4c5.6,1.8,18.3,3.5,18.3-4.9,0-9-18.9-3.2-18.5-16.7.4-11.7,15.1-13,23.7-8.9h0Z"/>
    <path class="st0" d="M891,64.5l.2,5.4c-7.5-3.6-21.3-3.8-15.4,7.7,30,4.3,16.3,31.2-8.2,22.9l-.2-5.4c5.6,1.8,18.3,3.5,18.3-4.9,0-9-18.9-3.2-18.5-16.7.4-11.7,15.1-13,23.7-8.9h0Z"/>
    <path class="st0" d="M426.9,93c1.1,4.1,9.1,3.8,12.6,3.5l-.8,4.3c-23.4,6.6-16.5-17.5-17.4-32.3l-8.4-.7c-.8-5.7,4.4-5.1,8.4-4.9v-9.8h5.6v9.8l11.2.7v4.9h-11.2v24.5h0Z"/>
    <path class="st0" d="M843.6,93c1.1,4.1,9.1,3.8,12.6,3.5l-.8,4.3c-23.4,6.6-16.5-17.5-17.4-32.3l-8.4-.7c-.8-5.7,4.3-5.1,8.4-4.9v-9.8h5.6v9.8l11.2.7v4.9h-11.2v24.5h0,0Z"/>
    <path class="st0" d="M709.4,93.6l11.3-30.6h6.9c-5.6,10.7-8.1,25.3-13.6,35.9-1.6,3.2-5.6,2.3-8.1.4l-13.2-36.4c2.2,0,4.6-.6,6.3,1.4,3.8,4.6,7.1,23,10.5,29.4h0,0Z"/>
    <path class="st0" d="M270.2,64.4v4.1c-11.8-1.3-22.4,0-21.8,14.5.6,13.2,10.8,15.2,21.9,12.1l-.2,5.4c-38,11.2-37.2-48.1,0-36.1h0Z"/>
    <path class="st0" d="M309.3,64.4v4.1c-11.8-1.3-22.4,0-21.8,14.5.6,13.2,10.8,15.2,21.9,12.1l-.2,5.4c-38,11.2-37.2-48.1,0-36.1h0Z"/>
    <path class="st0" d="M591.9,62.9h5.6l.7,5.6,14.7-7v7c-3.8-.9-14,2.1-14,6.3v25.9h-7v-37.7h0,0Z"/>
  </g>
</svg>