<?xml version="1.0" encoding="UTF-8"?><svg id="Laag_2" xmlns="http://www.w3.org/2000/svg" xmlns:xlink="http://www.w3.org/1999/xlink" viewBox="0 0 301.7 49.25"><defs><style>.cls-1{fill:url(#linear-gradient-2);}.cls-2{fill:url(#linear-gradient-10);}.cls-3{fill:url(#linear-gradient-12);}.cls-4{fill:#1d1d1b;}.cls-5{fill:url(#linear-gradient-4);}.cls-6{fill:url(#linear-gradient-3);}.cls-7{fill:url(#linear-gradient-5);}.cls-8{fill:#f39200;}.cls-9{fill:url(#linear-gradient-8);}.cls-10{fill:url(#linear-gradient-7);}.cls-11{fill:url(#linear-gradient-9);}.cls-12{fill:url(#linear-gradient-11);}.cls-13{fill:url(#linear-gradient-6);}.cls-14{fill:url(#linear-gradient);}</style><linearGradient id="linear-gradient" x1="144.63" y1="46.29" x2="144.63" y2="14.07" gradientUnits="userSpaceOnUse"><stop offset="0" stop-color="#fff"/><stop offset=".14" stop-color="#fff" stop-opacity=".99"/><stop offset=".27" stop-color="#fff" stop-opacity=".94"/><stop offset=".39" stop-color="#fff" stop-opacity=".87"/><stop offset=".51" stop-color="#fff" stop-opacity=".77"/><stop offset=".63" stop-color="#fff" stop-opacity=".64"/><stop offset=".74" stop-color="#fff" stop-opacity=".48"/><stop offset=".86" stop-color="#fff" stop-opacity=".29"/><stop offset=".96" stop-color="#fff" stop-opacity=".08"/><stop offset="1" stop-color="#fff" stop-opacity="0"/></linearGradient><linearGradient id="linear-gradient-2" x1="0" y1="4.16" x2="3.65" y2="4.16" gradientUnits="userSpaceOnUse"><stop offset="0" stop-color="#787473"/><stop offset="1" stop-color="#13110c"/></linearGradient><linearGradient id="linear-gradient-3" x1="5.61" y1="5.72" x2="9.25" y2="5.72" xlink:href="#linear-gradient-2"/><linearGradient id="linear-gradient-4" x1="11.21" y1="7.99" x2="14.86" y2="7.99" xlink:href="#linear-gradient-2"/><linearGradient id="linear-gradient-5" x1="16.81" y1="6.77" x2="20.46" y2="6.77" xlink:href="#linear-gradient-2"/><linearGradient id="linear-gradient-6" x1="22.42" y1="4.35" x2="26.07" y2="4.35" xlink:href="#linear-gradient-2"/><linearGradient id="linear-gradient-7" x1="28.02" y1=".76" x2="31.67" y2=".76" xlink:href="#linear-gradient-2"/><linearGradient id="linear-gradient-8" x1="-5.79" y1="12.18" x2="-5.04" y2="26.75" gradientTransform="translate(21.14 -5.42)" gradientUnits="userSpaceOnUse"><stop offset="0" stop-color="#191d21"/><stop offset="1" stop-color="#bcc2cf"/></linearGradient><linearGradient id="linear-gradient-9" x1="15.55" y1="15.17" x2="16.57" y2="24.97" gradientTransform="matrix(1,0,0,1,0,0)" xlink:href="#linear-gradient-8"/><linearGradient id="linear-gradient-10" x1="265.08" y1="38.69" x2="265.08" y2="20.84" xlink:href="#linear-gradient"/><linearGradient id="linear-gradient-11" x1="283.75" y1="37.69" x2="283.75" y2="19.84" xlink:href="#linear-gradient"/><linearGradient id="linear-gradient-12" x1="300.98" y1="37.69" x2="300.98" y2="19.84" xlink:href="#linear-gradient"/></defs><g id="Laag_1-2"><path class="cls-4" d="M65.31,38.38h-2.39v-2.07h-.05c-.98,1.49-2.47,2.44-4.3,2.44-3.61,0-5.87-3.11-5.87-6.5s2.15-6.71,5.95-6.71c1.78,0,3.27.95,4.22,2.36h.05v-1.94h2.39v12.42ZM59.02,27.65c-2.52,0-3.93,2.18-3.93,4.51s1.46,4.46,3.93,4.46,4.03-2.04,4.03-4.46-1.43-4.51-4.03-4.51Z"/><path class="cls-4" d="M78.77,38.38h-2.39v-12.42h2.39v5.71c0,2.26,0,4.97,3.08,4.97,2.44,0,2.74-1.43,2.74-3.56v-7.12h2.39v7.41c0,3.03-.9,5.39-4.41,5.39-1.51,0-3-.72-3.74-2.04h-.05v1.67Z"/><path class="cls-4" d="M107.5,25.95h2.39v23.04h-2.39v-12.69h-.05c-.98,1.49-2.47,2.44-4.33,2.44-3.58,0-5.84-3.11-5.84-6.5s2.12-6.71,5.95-6.71c1.75,0,3.27.95,4.22,2.36h.05v-1.94ZM103.59,27.65c-2.52,0-3.93,2.18-3.93,4.51s1.46,4.46,3.93,4.46,4.04-2.04,4.04-4.46-1.43-4.51-4.04-4.51Z"/><path class="cls-8" d="M127.54,36.52c-.53,1.14-1.88,1.96-3.13,1.96-1.78,0-3.34-1.25-3.34-3.11,0-2.07,1.91-2.79,3.58-3.4,1.22-.43,2.39-.9,2.39-2.42s-1.22-2.76-2.76-2.76c-1.62,0-2.6,1.04-3.05,2.5l-1.17-.37c.5-1.99,2.18-3.24,4.22-3.24,2.2,0,3.96,1.57,3.96,3.82,0,4.43-5.97,3-5.97,5.95,0,1.06,1.06,1.91,2.1,1.91.96,0,1.75-.53,2.15-1.38l1.03.53Z"/><path class="cls-8" d="M139.28,47.85v-21.9h1.2v6.05c0,2.5.5,5.36,3.58,5.36,2.68,0,2.95-1.81,2.95-4.01v-7.41h1.2v7.41c0,3.16-.88,5.12-4.04,5.12-1.59,0-2.92-.82-3.64-2.18h-.05v11.55h-1.2Z"/><path class="cls-8" d="M165.43,38.48c-3.55,0-6.37-2.89-6.37-6.43s2.84-6.37,6.37-6.37,6.45,2.76,6.45,6.4-2.84,6.4-6.45,6.4ZM165.35,37.37c3.03,0,5.34-2.28,5.34-5.31s-2.34-5.26-5.34-5.26-5.1,2.47-5.1,5.26,2.18,5.31,5.1,5.31Z"/><path class="cls-8" d="M183.94,38.22h-1.2v-19.43h1.2v9.29h.05c1.01-1.57,2.84-2.39,4.73-2.39,3.69,0,6,2.71,6,6.29s-2.31,6.5-6.05,6.5c-1.8,0-3.77-.9-4.67-2.47h-.05v2.2ZM188.69,37.37c3,0,4.83-2.6,4.83-5.42s-1.91-5.15-4.78-5.15-4.88,2.15-4.88,5.02,1.7,5.55,4.83,5.55Z"/><path class="cls-8" d="M206.77,38.22h-1.2v-19.43h1.2v9.29h.05c1.01-1.57,2.84-2.39,4.73-2.39,3.69,0,6,2.71,6,6.29s-2.31,6.5-6.05,6.5c-1.8,0-3.77-.9-4.67-2.47h-.05v2.2ZM211.52,37.37c3,0,4.83-2.6,4.83-5.42s-1.91-5.15-4.78-5.15-4.88,2.15-4.88,5.02,1.7,5.55,4.83,5.55Z"/><path class="cls-8" d="M239.06,31.98c.03,3.53-2.18,6.5-5.89,6.5s-5.95-2.95-5.95-6.37,2.31-6.43,5.95-6.43c2.42,0,4.38,1.2,5.49,3.32l-1.01.58c-.87-1.65-2.42-2.79-4.33-2.79-2.84,0-4.99,2.07-4.91,5.18h10.65ZM228.41,33.09c.21,2.31,2.28,4.28,4.78,4.28s4.38-2.02,4.67-4.28h-9.45Z"/><path class="cls-8" d="M251.11,38.22h-1.2v-12.26h1.2v6.27c0,1.8-.16,5.15,2.52,5.15.32,0,.56-.08.85-.24l.64,1.06c-.42.19-.82.29-1.3.29-1.3,0-2.18-.74-2.65-1.86h-.05v1.59Z"/><path class="cls-4" d="M39.15,36.62v.05c1.35.64,2.15,2.34,2.15,3.8,0,4.49-3.52,5.49-7.27,5.5v-2.23h.69c2.34,0,4.25-.48,4.25-3.29s-1.94-3.35-4.3-3.35h-.64v-1.99h1.54c2.23,0,5.1-.58,5.1-3.4s-2.42-3.53-4.73-3.53h-1.91v-2.23h2.18c3.53,0,6.95,1.59,6.95,5.6,0,2.34-1.65,4.65-4.01,5.07Z"/><path class="cls-14" d="M107.25,49.25v-12.25c-1.07,1.3-2.51,2-4.13,2-3.96,0-6.09-3.48-6.09-6.75s1.94-6.96,6.2-6.96c1.54,0,2.97.7,4.02,1.94v-1.52h2.89v23.54h-2.89ZM103.59,27.9c-2.41,0-3.68,2.15-3.68,4.26s1.26,4.21,3.68,4.21c2.6,0,3.79-2.18,3.79-4.21s-1.17-4.26-3.79-4.26h0ZM139.03,48.1v-22.4h1.7v6.3c0,3.49,1.06,5.11,3.33,5.11s2.7-1.27,2.7-3.76v-7.66h1.7v7.66c0,2.5-.49,5.37-4.29,5.37-1.38,0-2.62-.61-3.44-1.66v11.03h-1.7ZM33.78,43.49h.94c2.4,0,4-.52,4-3.04s-1.62-3.1-4.05-3.1h-.89v-2.49h1.79c2.21,0,4.85-.55,4.85-3.15,0-2.18-1.51-3.28-4.48-3.28h-2.16v-2.73h2.43c3.48,0,7.2,1.54,7.2,5.85,0,2.36-1.57,4.52-3.67,5.18,1.19.84,1.81,2.44,1.81,3.74,0,3.85-2.46,5.73-7.52,5.75h-.25s0-2.73,0-2.73ZM82.56,39c-1.42,0-2.72-.59-3.54-1.57v1.2h-2.89v-12.92h2.89v5.96c0,2.32,0,4.72,2.83,4.72,2.11,0,2.49-1.07,2.49-3.31v-7.37h2.89v7.66c0,3.79-1.52,5.64-4.66,5.64h0ZM58.56,39c-3.97,0-6.12-3.48-6.12-6.75s1.94-6.96,6.2-6.96c1.54,0,2.98.7,4.03,1.94v-1.52h2.89v12.92h-2.89v-1.63c-1.06,1.3-2.5,2-4.1,2h0ZM59.02,27.9c-2.42,0-3.68,2.15-3.68,4.26s1.26,4.21,3.68,4.21c2.6,0,3.78-2.18,3.78-4.21s-1.17-4.26-3.78-4.26h0ZM253.82,38.73c-1.02,0-1.87-.44-2.46-1.25v.98h-1.7v-12.76h1.7v6.8c0,1.27-.01,3.19.88,4.09.35.35.8.52,1.39.52.26,0,.45-.06.73-.21l.21-.12.91,1.51-.26.11c-.5.22-.93.31-1.4.31h0ZM233.16,38.73c-3.53,0-6.2-2.85-6.2-6.62s2.61-6.68,6.2-6.68c2.52,0,4.55,1.23,5.72,3.45l.11.21-1.44.83-.12-.23c-.9-1.69-2.39-2.65-4.11-2.65-1.33,0-2.52.48-3.37,1.35-.83.85-1.27,2-1.29,3.33h10.65v.25c.02,2.02-.66,3.81-1.9,5.06-1.1,1.11-2.57,1.69-4.25,1.69h0ZM228.69,33.34c.34,2.11,2.3,3.78,4.5,3.78,2.41,0,4.01-1.9,4.38-3.78h-8.87ZM211.5,38.73c-1.76,0-3.47-.78-4.47-2v1.73h-1.7v-19.93h1.7v8.86c1.06-1.24,2.7-1.96,4.53-1.96,3.68,0,6.25,2.69,6.25,6.54s-2.65,6.75-6.3,6.75h0ZM211.58,27.05c-2.73,0-4.63,1.96-4.63,4.77,0,2.55,1.43,5.3,4.58,5.3,2.97,0,4.58-2.66,4.58-5.17,0-2.79-1.95-4.9-4.53-4.9h0ZM188.66,38.73c-1.76,0-3.47-.78-4.47-2v1.73h-1.7v-19.93h1.7v8.86c1.06-1.24,2.7-1.96,4.53-1.96,3.68,0,6.25,2.69,6.25,6.54s-2.65,6.75-6.3,6.75h0ZM188.74,27.05c-2.73,0-4.63,1.96-4.63,4.77,0,2.55,1.43,5.3,4.58,5.3,2.97,0,4.58-2.66,4.58-5.17,0-2.79-1.95-4.9-4.53-4.9h0ZM165.43,38.73c-3.65,0-6.62-2.99-6.62-6.68s2.97-6.62,6.62-6.62,6.7,2.92,6.7,6.65-2.94,6.65-6.7,6.65h0ZM165.35,27.05c-2.67,0-4.85,2.25-4.85,5.01s2.17,5.06,4.85,5.06c2.9,0,5.09-2.18,5.09-5.06s-2.23-5.01-5.09-5.01h0ZM124.41,38.73c-2.02,0-3.59-1.47-3.59-3.36,0-2.27,2.08-3.02,3.75-3.63,1.26-.44,2.22-.88,2.22-2.18,0-1.41-1.1-2.51-2.51-2.51-1.73,0-2.49,1.26-2.81,2.32l-.07.24-1.63-.52.06-.23c.53-2.08,2.28-3.43,4.46-3.43,2.4,0,4.21,1.75,4.21,4.07,0,2.62-2,3.35-3.6,3.93-1.47.54-2.37.92-2.37,2.01,0,.95.98,1.66,1.85,1.66s1.56-.46,1.92-1.24l.11-.24,1.48.76-.1.22c-.56,1.2-2,2.11-3.36,2.11h0Z"/><path class="cls-1" d="M3.65,4.14c0,.43-.35.78-.78.78H.78c-.43,0-.78-.35-.78-.78v.05c0-.43.35-.78.78-.78h2.08c.43,0,.78.35.78.78v-.05Z"/><path class="cls-6" d="M9.25,5.7c0,.43-.35.78-.78.78h-2.08c-.43,0-.78-.35-.78-.78v.05c0-.43.35-.78.78-.78h2.08c.43,0,.78.35.78.78v-.05Z"/><path class="cls-5" d="M14.86,7.97c0,.43-.35.78-.78.78h-2.08c-.43,0-.78-.35-.78-.78v.05c0-.43.35-.78.78-.78h2.08c.43,0,.78.35.78.78v-.05Z"/><path class="cls-7" d="M20.46,6.75c0,.43-.35.78-.78.78h-2.08c-.43,0-.78-.35-.78-.78v.05c0-.43.35-.78.78-.78h2.08c.43,0,.78.35.78.78v-.05Z"/><path class="cls-13" d="M26.07,4.32c0,.43-.35.78-.78.78h-2.08c-.43,0-.78-.35-.78-.78v.05c0-.43.35-.78.78-.78h2.08c.43,0,.78.35.78.78v-.05Z"/><path class="cls-10" d="M31.67.73c0,.43-.35.78-.78.78h-2.08c-.43,0-.78-.35-.78-.78v.05c0-.43.35-.78.78-.78h2.08c.43,0,.78.35.78.78v-.05Z"/><path class="cls-9" d="M2.87,6.99H.78c-.43,0-.78.35-.78.78v17.94c0,.43.35.78.78.78h2.08c.43,0,.78-.35.78-.78V7.77c0-.43-.35-.78-.78-.78ZM8.47,10.13h-2.08c-.43,0-.78.35-.78.78v14.8c0,.43.35.78.78.78h2.08c.43,0,.78-.35.78-.78v-14.8c0-.43-.35-.78-.78-.78ZM14.08,14.06h-2.08c-.43,0-.78.35-.78.78v10.87c0,.43.35.78.78.78h2.08c.43,0,.78-.35.78-.78v-10.87c0-.43-.35-.78-.78-.78ZM19.68,12.36h-2.08c-.43,0-.78.35-.78.78v12.57c0,.43.35.78.78.78h2.08c.43,0,.78-.35.78-.78v-12.57c0-.43-.35-.78-.78-.78ZM25.28,8.43h-2.08c-.43,0-.78.35-.78.78v16.5c0,.43.35.78.78.78h2.08c.43,0,.78-.35.78-.78V9.21c0-.43-.35-.78-.78-.78ZM30.89,5.94h-2.08c-.43,0-.78.35-.78.78v18.99c0,.43.35.78.78.78h2.08c.43,0,.78-.35.78-.78V6.72c0-.43-.35-.78-.78-.78Z"/><path class="cls-11" d="M5.61,25.72c0,.43.35.78.78.78h2.08c.43,0,.78-.35.78-.78v-6.79c-1.2.11-2.42.17-3.65.19v6.6ZM11.21,25.72c0,.43.35.78.78.78h2.08c.43,0,.78-.35.78-.78v-7.63c-1.19.25-2.41.46-3.65.62v7.01ZM0,25.72c0,.43.35.78.78.78h2.08c.43,0,.78-.35.78-.78v-6.6c-1.23-.03-2.45-.1-3.65-.21v6.82ZM22.42,25.72c0,.43.35.78.78.78h2.08c.43,0,.78-.35.78-.78v-11.7c-1.16.63-2.38,1.22-3.65,1.75v9.95ZM28.02,12.86v12.86c0,.43.35.78.78.78h2.08c.43,0,.78-.35.78-.78v-15.58c-1.11.97-2.33,1.89-3.65,2.73ZM16.81,25.72c0,.43.35.78.78.78h2.08c.43,0,.78-.35.78-.78v-9.2c-1.18.42-2.4.79-3.65,1.11v8.09Z"/><path class="cls-4" d="M65.31,25.94h-2.39v-1.94h-.05c-.96,1.41-2.44,2.36-4.22,2.36-3.8,0-5.95-3.16-5.95-6.71s2.26-6.5,5.87-6.5c1.83,0,3.32.95,4.3,2.44h.05v-2.07h2.39v12.42ZM63.05,19.73c0-2.42-1.46-4.46-4.03-4.46s-3.93,2.15-3.93,4.46,1.41,4.51,3.93,4.51,4.03-2.07,4.03-4.51Z"/><path class="cls-4" d="M78.77,15.19h.05c.74-1.33,2.23-2.04,3.74-2.04,3.5,0,4.41,2.36,4.41,5.39v7.41h-2.39v-7.12c0-2.12-.29-3.56-2.74-3.56-3.08,0-3.08,2.71-3.08,4.96v5.71h-2.39v-12.42h2.39v1.67Z"/><path class="cls-4" d="M107.5,24h-.05c-.96,1.41-2.47,2.36-4.22,2.36-3.82,0-5.95-3.16-5.95-6.71s2.26-6.5,5.84-6.5c1.86,0,3.35.95,4.33,2.44h.05V2.9h2.39v23.04h-2.39v-1.94ZM107.63,19.73c0-2.42-1.46-4.46-4.04-4.46s-3.93,2.15-3.93,4.46,1.41,4.51,3.93,4.51,4.04-2.07,4.04-4.51Z"/><path class="cls-8" d="M126.51,15.91c-.4-.85-1.2-1.38-2.15-1.38-1.04,0-2.1.85-2.1,1.91,0,2.95,5.97,1.51,5.97,5.95,0,2.26-1.75,3.82-3.96,3.82-2.04,0-3.72-1.25-4.22-3.24l1.17-.37c.45,1.46,1.43,2.5,3.05,2.5s2.76-1.22,2.76-2.76-1.17-1.99-2.39-2.42c-1.67-.61-3.58-1.33-3.58-3.4,0-1.86,1.57-3.11,3.34-3.11,1.25,0,2.6.82,3.13,1.96l-1.03.53Z"/><path class="cls-8" d="M140.47,4.04v11.55h.05c.72-1.35,2.04-2.18,3.64-2.18,3.16,0,4.04,1.96,4.04,5.12v7.41h-1.2v-7.41c0-2.2-.27-4.01-2.95-4.01-3.08,0-3.58,2.87-3.58,5.36v6.05h-1.2V4.04h1.2Z"/><path class="cls-8" d="M171.88,19.81c0,3.64-2.84,6.4-6.45,6.4s-6.37-2.89-6.37-6.37,2.81-6.42,6.37-6.42,6.45,2.76,6.45,6.4ZM160.25,19.83c0,2.79,2.2,5.26,5.1,5.26s5.34-2.28,5.34-5.26-2.31-5.31-5.34-5.31-5.1,2.47-5.1,5.31Z"/><path class="cls-8" d="M183.94,15.88h.05c.9-1.57,2.87-2.47,4.67-2.47,3.74,0,6.05,2.92,6.05,6.5s-2.31,6.29-6,6.29c-1.89,0-3.72-.82-4.73-2.39h-.05v9.29h-1.2V13.68h1.2v2.2ZM183.86,20.07c0,2.87,1.94,5.02,4.88,5.02s4.78-2.42,4.78-5.15-1.83-5.42-4.83-5.42-4.83,2.6-4.83,5.55Z"/><path class="cls-8" d="M206.77,15.88h.05c.9-1.57,2.87-2.47,4.67-2.47,3.74,0,6.05,2.92,6.05,6.5s-2.31,6.29-6,6.29c-1.89,0-3.72-.82-4.73-2.39h-.05v9.29h-1.2V13.68h1.2v2.2ZM206.69,20.07c0,2.87,1.94,5.02,4.88,5.02s4.78-2.42,4.78-5.15-1.83-5.42-4.83-5.42-4.83,2.6-4.83,5.55Z"/><path class="cls-8" d="M228.41,19.91c-.08,3.11,2.07,5.18,4.91,5.18,1.91,0,3.45-1.14,4.33-2.79l1.01.58c-1.12,2.12-3.08,3.32-5.49,3.32-3.64,0-5.95-2.95-5.95-6.43s2.36-6.37,5.95-6.37,5.92,2.97,5.89,6.5h-10.65ZM237.86,18.8c-.29-2.26-2.15-4.27-4.67-4.27s-4.57,1.96-4.78,4.27h9.45Z"/><path class="cls-8" d="M251.11,15.27h.05c.48-1.12,1.35-1.86,2.65-1.86.48,0,.88.11,1.3.29l-.64,1.06c-.29-.16-.53-.24-.85-.24-2.68,0-2.52,3.34-2.52,5.15v6.27h-1.2v-12.26h1.2v1.59Z"/><path class="cls-4" d="M39.15,15.27v-.05c1.35-.64,2.15-2.34,2.15-3.8,0-4.49-3.52-5.49-7.27-5.5v2.23h.69c2.34,0,4.25.48,4.25,3.29s-1.94,3.35-4.3,3.35h-.64v1.99h1.54c2.23,0,5.1.58,5.1,3.4s-2.42,3.53-4.73,3.53h-1.91v2.23h2.18c3.53,0,6.95-1.59,6.95-5.6,0-2.34-1.65-4.65-4.01-5.07Z"/><path class="cls-4" d="M266.15,27.02c0-.57-.47-1.01-1.07-1.01s-1.07.44-1.07,1.01.47,1.01,1.07,1.01,1.07-.44,1.07-1.01Z"/><path class="cls-4" d="M280.55,34.88h.05c.7,1.26,2,2.02,3.56,2.02,3.09,0,3.95-1.83,3.95-4.77v-6.89h-1.17v6.89c0,2.05-.26,3.73-2.89,3.73-3.02,0-3.51-2.67-3.51-4.99v-5.63h-1.17v11.41h1.17v-1.78Z"/><path class="cls-4" d="M301.56,25.25h-1.17v20.37h1.17v-20.37Z"/><path class="cls-2" d="M265.08,28.17c-.68,0-1.21-.51-1.21-1.15s.53-1.15,1.21-1.15,1.21.51,1.21,1.15-.53,1.15-1.21,1.15Z"/><path class="cls-12" d="M284.17,37.05c-1.46,0-2.7-.63-3.47-1.75v1.51h-1.45v-11.69h1.45v5.77c0,3.31,1.07,4.85,3.37,4.85,2.54,0,2.74-1.62,2.74-3.59v-7.03h1.45v7.03c0,3.44-1.22,4.91-4.09,4.91Z"/><rect class="cls-3" x="300.25" y="25.11" width="1.45" height="20.66"/><path class="cls-4" d="M266.15,24.95c0,.6-.47,1.07-1.07,1.07s-1.07-.47-1.07-1.07.47-1.07,1.07-1.07,1.07.47,1.07,1.07Z"/><path class="cls-4" d="M280.55,15.61h.05c.7-1.33,2-2.13,3.56-2.13,3.09,0,3.95,1.92,3.95,5.02v7.25h-1.17v-7.25c0-2.16-.26-3.93-2.89-3.93-3.02,0-3.51,2.81-3.51,5.25v5.93h-1.17v-12.01h1.17v1.87Z"/><path class="cls-4" d="M301.56,25.75h-1.17V4.3h1.17v21.45Z"/></g></svg>